<?xml version="1.0" standalone="no"?>
<!DOCTYPE svg PUBLIC "-//W3C//DTD SVG 20010904//EN"
 "http://www.w3.org/TR/2001/REC-SVG-20010904/DTD/svg10.dtd">
<svg version="1.0" xmlns="http://www.w3.org/2000/svg"
 width="229.000000pt" height="229.000000pt" viewBox="0 0 229.000000 229.000000"
 preserveAspectRatio="xMidYMid meet">
<metadata>
Created by potrace 1.14, written by Peter Selinger 2001-2017
</metadata>
<g transform="translate(0.000000,229.000000) scale(0.100000,-0.100000)"
fill="#000000" stroke="none">
<path d="M715 1899 c-16 -6 -40 -12 -52 -15 -12 -2 -31 -8 -43 -12 -21 -8 -21
-10 -6 -24 9 -9 16 -21 16 -26 0 -5 7 -15 15 -22 8 -7 12 -16 9 -21 -3 -5 1
-12 10 -15 8 -3 12 -12 9 -20 -3 -7 2 -17 11 -20 9 -3 16 -14 16 -23 0 -9 4
-21 10 -27 10 -10 103 -165 129 -217 8 -15 18 -27 23 -27 5 0 7 -4 3 -9 -3 -5
2 -16 10 -24 8 -9 15 -20 15 -25 0 -5 12 -26 26 -47 27 -41 26 -65 -5 -65 -11
0 -23 -5 -26 -10 -4 -6 -10 -8 -14 -5 -5 2 -23 0 -42 -6 -19 -5 -41 -12 -49
-14 -8 -1 -42 -10 -75 -19 -33 -9 -67 -18 -75 -20 -8 -2 -34 -9 -57 -15 -51
-14 -54 -12 -174 88 -34 29 -36 29 -75 16 -21 -8 -47 -14 -56 -15 -19 0 -26
-20 -7 -20 5 0 8 -4 4 -9 -3 -5 3 -17 12 -27 9 -9 18 -24 20 -33 1 -8 7 -17
12 -19 6 -2 11 -10 11 -18 0 -8 5 -14 11 -14 5 0 8 -4 4 -10 -3 -5 3 -18 14
-29 11 -11 17 -22 14 -25 -4 -3 -1 -6 6 -6 7 0 10 -4 7 -8 -3 -5 2 -18 12 -28
9 -11 18 -26 20 -34 2 -8 8 -20 15 -25 7 -6 13 -17 15 -25 9 -41 25 -43 128
-15 55 14 106 29 114 32 8 3 22 7 30 8 18 3 67 15 175 45 44 12 87 24 95 26 8
2 42 11 75 20 33 9 67 18 75 19 17 4 453 122 595 161 110 30 118 32 127 33 4
1 21 14 39 30 25 23 32 39 35 75 2 30 -2 50 -11 59 -8 8 -12 17 -9 20 9 9 -55
48 -83 51 -23 3 -137 -23 -231 -52 -18 -6 -36 -11 -40 -12 -4 0 -25 -5 -47
-11 -45 -12 -69 -18 -105 -26 -14 -3 -30 -9 -36 -14 -14 -11 -51 10 -99 57
-92 89 -164 152 -169 146 -3 -3 -6 0 -6 6 0 13 -94 104 -119 114 -9 4 -12 7
-8 7 4 1 -18 25 -49 54 -31 28 -61 51 -66 50 -4 -2 -7 1 -6 6 3 9 -82 91 -92
90 -3 0 -18 -5 -35 -10z"/>
<path d="M304 544 l-1 -81 787 0 786 0 1 81 1 81 -787 0 -787 0 0 -81z"/>
</g>
</svg>
