<?xml version="1.0" standalone="no"?>
<!DOCTYPE svg PUBLIC "-//W3C//DTD SVG 20010904//EN"
 "http://www.w3.org/TR/2001/REC-SVG-20010904/DTD/svg10.dtd">
<svg version="1.0" xmlns="http://www.w3.org/2000/svg"
 width="632.000000pt" height="309.000000pt" viewBox="0 0 632.000000 309.000000"
 preserveAspectRatio="xMidYMid meet">

<g transform="translate(0.000000,309.000000) scale(0.100000,-0.100000)"
fill="#000000" stroke="none">
<path d="M2363 3065 c-75 -38 -77 -43 -36 -97 l36 -47 41 22 c23 12 43 23 45
24 6 4 -21 123 -28 123 -4 0 -30 -11 -58 -25z"/>
<path d="M2585 3043 c-30 -73 -30 -77 16 -108 l43 -28 38 41 c21 23 38 45 38
50 0 9 -52 46 -97 71 -21 10 -24 8 -38 -26z"/>
<path d="M2161 2878 c-8 -13 -23 -37 -33 -55 l-19 -32 52 -30 53 -30 34 50
c18 28 32 52 30 53 -2 1 -22 17 -44 34 -50 38 -55 39 -73 10z"/>
<path d="M2775 2849 c-22 -16 -41 -34 -43 -39 -2 -6 36 -78 53 -98 5 -6 105
53 105 62 0 13 -60 106 -69 106 -3 0 -24 -14 -46 -31z"/>
<path d="M2017 2603 l-25 -58 37 -16 c74 -34 79 -34 96 7 32 76 31 79 -22 100
-26 10 -51 20 -54 22 -3 1 -18 -23 -32 -55z"/>
<path d="M2899 2613 l-57 -25 21 -51 c12 -29 23 -54 24 -56 2 -3 28 3 58 13
63 19 65 27 32 97 l-22 47 -56 -25z"/>
<path d="M1931 2356 c-6 -24 -13 -50 -17 -59 -4 -12 4 -18 33 -26 80 -22 84
-20 99 29 20 64 19 66 -33 84 -66 22 -69 21 -82 -28z"/>
<path d="M2982 2362 c-39 -11 -51 -19 -47 -30 3 -8 10 -34 16 -58 12 -48 17
-50 85 -33 30 8 44 17 44 28 0 27 -26 105 -36 107 -5 1 -33 -5 -62 -14z"/>
<path d="M6004 2161 c-44 -27 -64 -64 -138 -255 -35 -93 -68 -172 -73 -176 -4
-4 -109 -33 -233 -64 -124 -32 -256 -66 -295 -77 -38 -10 -75 -19 -82 -19 -10
0 -13 35 -13 150 l0 150 -90 0 -90 0 0 -327 c0 -377 -1 -380 -80 -421 -37 -19
-56 -23 -105 -19 -73 5 -115 25 -147 69 -23 33 -23 36 -26 366 l-3 332 -90 0
-91 0 5 -347 c3 -260 7 -358 17 -387 20 -56 91 -129 152 -157 48 -22 67 -24
193 -24 133 0 143 1 197 28 64 31 101 70 132 137 16 35 21 72 24 173 3 83 8
130 16 133 17 6 509 54 513 50 4 -3 -131 -364 -138 -370 -2 -1 -53 -21 -113
-42 l-109 -40 -18 -47 -19 -47 145 0 144 0 48 -42 c26 -22 71 -63 100 -90 28
-28 55 -49 60 -48 4 1 15 21 23 43 l15 42 -48 90 c-26 49 -50 99 -53 111 -5
21 122 374 135 374 7 0 369 -392 383 -413 9 -15 11 -13 39 67 l25 69 -178 266
-179 267 68 174 c60 155 68 183 68 243 0 56 -3 71 -19 83 -26 18 -35 18 -72
-5z"/>
<path d="M1877 2133 c-2 -4 -8 -24 -12 -43 -3 -19 -9 -43 -11 -53 -4 -11 2
-20 18 -26 19 -8 13 -10 -29 -10 -28 -1 -54 -5 -57 -10 -3 -5 -11 -148 -18
-318 -12 -302 -11 -310 8 -343 11 -20 39 -44 67 -59 l48 -24 -3 -111 c-3 -106
-4 -111 -28 -123 -14 -7 -42 -15 -62 -18 -89 -14 -5 -55 112 -55 117 0 201 41
113 55 -21 3 -49 11 -63 18 -24 12 -25 16 -28 125 l-3 113 33 14 c18 8 43 22
54 32 45 38 47 52 39 302 -4 130 -10 272 -14 316 -6 79 -6 80 -35 83 -27 3
-28 5 -21 49 4 25 9 51 11 58 3 8 -8 15 -33 19 -21 4 -48 10 -59 12 -12 3 -24
2 -27 -3z m117 -189 c3 -9 6 -60 6 -115 l0 -99 -90 0 -90 0 0 93 c0 141 -2
137 90 137 62 0 79 -3 84 -16z"/>
<path d="M3058 2106 c-25 -6 -49 -14 -53 -18 -9 -8 16 -118 26 -118 35 0 109
24 109 35 0 28 -22 115 -28 114 -4 -1 -28 -6 -54 -13z"/>
<path d="M3740 1876 c-151 -32 -265 -146 -306 -305 -21 -84 -16 -273 10 -346
62 -172 192 -263 389 -273 157 -7 260 31 352 130 158 170 152 522 -12 686
-102 102 -269 144 -433 108z m169 -146 c76 -14 134 -58 168 -127 26 -54 28
-66 28 -183 0 -106 -4 -132 -22 -171 -46 -99 -144 -157 -248 -146 -102 10
-178 72 -212 172 -23 67 -23 231 1 294 39 105 95 146 227 170 4 1 30 -3 58 -9z"/>
<path d="M10 1795 l0 -75 135 0 135 0 0 -380 0 -380 90 0 90 0 0 380 0 380
135 0 135 0 0 75 0 75 -360 0 -360 0 0 -75z"/>
<path d="M880 1416 l0 -456 95 0 95 0 0 189 c0 152 3 190 14 194 26 10 125 -9
148 -29 38 -32 54 -54 155 -206 l98 -148 108 0 c59 0 107 2 107 4 0 8 -162
260 -191 296 -15 19 -45 49 -68 65 -22 17 -41 33 -41 36 0 3 25 13 55 23 65
20 118 63 148 120 30 57 30 174 0 231 -27 51 -67 89 -118 112 -35 16 -77 18
-322 21 l-283 3 0 -455z m510 287 c58 -34 69 -122 21 -175 l-29 -33 -156 -3
-156 -3 0 115 0 116 146 0 c118 0 151 -3 174 -17z"/>
<path d="M2220 1416 l0 -456 90 0 90 0 0 174 0 174 153 4 c132 3 159 7 205 27
101 45 151 130 152 256 0 123 -43 197 -144 253 -26 15 -68 17 -288 20 l-258 3
0 -455z m440 286 c73 -36 89 -126 34 -191 -33 -39 -77 -51 -196 -51 l-98 0 0
130 0 130 113 0 c87 0 120 -4 147 -18z"/>
<path d="M3090 1841 l-35 -6 3 -60 c2 -33 5 -61 7 -63 1 -2 30 0 64 4 l61 7
-5 36 c-17 102 -11 97 -95 82z"/>
<path d="M3097 1573 c-11 -3 -16 -10 -13 -20 3 -8 6 -35 6 -59 l0 -44 53 0
c73 0 77 5 70 73 l-6 57 -46 -1 c-25 -1 -54 -3 -64 -6z"/>
<path d="M3157 1308 c-37 -8 -47 -14 -43 -27 3 -9 10 -37 17 -63 6 -27 17 -48
23 -48 22 0 116 31 116 38 0 4 -6 30 -13 57 -15 56 -22 59 -100 43z"/>
<path d="M3255 1058 c-27 -11 -54 -23 -58 -27 -8 -8 36 -121 47 -121 3 0 30
11 61 24 l55 25 -21 53 c-11 29 -23 56 -27 59 -4 3 -29 -3 -57 -13z"/>
<path d="M3360 813 c-25 -14 -47 -28 -49 -29 -6 -5 62 -114 71 -114 4 0 30 16
58 36 l49 35 -32 49 c-18 28 -36 50 -42 50 -5 0 -30 -12 -55 -27z"/>
<path d="M5471 764 c-12 -31 -20 -58 -19 -59 6 -5 107 -55 112 -55 2 0 6 6 9
13 3 6 14 35 26 64 l20 52 -52 17 c-29 9 -57 19 -63 21 -6 2 -21 -22 -33 -53z"/>
<path d="M3510 591 l-44 -38 43 -52 44 -52 48 47 48 47 -37 43 c-20 24 -41 43
-47 44 -5 0 -30 -17 -55 -39z"/>
<path d="M5352 545 c-18 -25 -32 -49 -32 -53 1 -4 23 -24 50 -45 l49 -38 35
48 c20 26 36 54 36 60 0 11 -62 57 -94 69 -6 2 -26 -16 -44 -41z"/>
<path d="M3700 403 l-42 -48 39 -33 c66 -58 67 -58 108 -1 l37 52 -44 38 c-23
21 -46 38 -50 39 -3 0 -25 -21 -48 -47z"/>
<path d="M5183 361 c-24 -20 -43 -40 -43 -44 0 -14 65 -96 75 -97 6 0 32 19
58 43 l48 42 -48 47 -48 46 -42 -37z"/>
<path d="M3916 245 c-17 -30 -28 -56 -25 -58 9 -9 111 -58 114 -55 5 6 55 107
55 112 0 7 -96 56 -107 56 -4 0 -21 -25 -37 -55z"/>
<path d="M4968 224 c-27 -13 -48 -26 -48 -29 0 -6 41 -109 45 -113 5 -5 125
50 125 57 0 12 -61 111 -68 111 -4 -1 -28 -12 -54 -26z"/>
<path d="M4161 143 c-12 -30 -21 -59 -21 -64 0 -11 107 -42 124 -36 7 3 16 23
20 44 3 21 9 48 12 61 5 17 2 22 -14 22 -11 0 -38 6 -60 14 l-40 14 -21 -55z"/>
<path d="M4726 148 l-49 -11 7 -60 c3 -33 8 -62 11 -65 2 -2 34 1 70 8 53 10
65 16 61 29 -3 9 -10 37 -17 64 -6 26 -16 46 -23 46 -6 -1 -33 -6 -60 -11z"/>
<path d="M4417 79 c-4 -34 -5 -64 -3 -67 3 -2 34 -7 70 -9 l66 -6 0 67 c0 65
0 66 -27 66 -16 0 -44 3 -64 6 l-36 6 -6 -63z"/>
</g>
</svg>
