<?xml version="1.0" standalone="no"?>
<!DOCTYPE svg PUBLIC "-//W3C//DTD SVG 20010904//EN"
 "http://www.w3.org/TR/2001/REC-SVG-20010904/DTD/svg10.dtd">
<svg version="1.0" xmlns="http://www.w3.org/2000/svg"
 width="804.000000pt" height="404.000000pt" viewBox="0 0 804.000000 404.000000"
 preserveAspectRatio="xMidYMid meet">

<g transform="translate(0.000000,404.000000) scale(0.100000,-0.100000)"
fill="#000000" stroke="none">
<path d="M3215 3800 c-4 -6 -4 -29 0 -50 7 -39 8 -40 45 -40 38 0 39 1 47 43
8 38 7 43 -12 49 -32 10 -73 9 -80 -2z"/>
<path d="M3065 3744 c-11 -9 -29 -22 -40 -30 -19 -13 -18 -15 14 -48 l34 -35
33 26 33 25 -22 39 c-25 44 -25 44 -52 23z"/>
<path d="M3403 3711 l-22 -38 29 -22 c38 -27 41 -27 76 10 l29 30 -35 29 c-19
16 -39 30 -45 30 -5 0 -20 -17 -32 -39z"/>
<path d="M2906 3585 c-14 -18 -26 -38 -26 -44 0 -9 69 -56 74 -50 1 2 12 17
24 33 12 16 22 31 22 35 0 3 -15 18 -34 33 l-34 27 -26 -34z"/>
<path d="M3552 3582 c-38 -32 -39 -38 -8 -76 l24 -29 33 23 c19 13 36 25 38
27 4 2 -47 83 -52 83 -1 0 -17 -13 -35 -28z"/>
<path d="M2797 3405 c-9 -20 -17 -39 -17 -43 0 -7 63 -42 75 -42 3 0 14 18 25
39 l20 39 -36 21 c-19 12 -39 21 -43 21 -4 0 -15 -16 -24 -35z"/>
<path d="M3655 3413 c-16 -8 -32 -17 -34 -19 -4 -4 29 -84 34 -84 4 0 80 32
83 35 6 5 -38 85 -46 85 -4 -1 -20 -8 -37 -17z"/>
<path d="M2715 3224 c-21 -50 -20 -52 21 -69 49 -20 49 -20 64 25 15 46 16 44
-33 65 l-37 15 -15 -36z"/>
<path d="M3738 3232 c-43 -19 -43 -18 -23 -66 17 -39 18 -39 82 -15 22 8 22 9
7 54 -18 50 -15 49 -66 27z"/>
<path d="M2646 3024 c-15 -44 -15 -45 8 -53 57 -22 69 -18 82 26 l12 42 -43
15 -44 14 -15 -44z"/>
<path d="M3811 3046 c-42 -15 -46 -25 -31 -72 9 -27 16 -34 29 -29 9 4 29 9
44 12 23 5 27 10 23 27 -4 12 -9 33 -12 49 -7 30 -6 30 -53 13z"/>
<path d="M2592 2832 c-16 -51 -16 -49 16 -56 15 -4 35 -9 44 -12 13 -4 20 5
28 37 13 48 8 55 -41 64 -34 6 -36 5 -47 -33z"/>
<path d="M3852 2849 c-24 -7 -32 -14 -28 -27 3 -9 8 -29 12 -44 7 -32 6 -32
57 -17 38 10 39 11 32 47 -11 58 -12 58 -73 41z"/>
<path d="M7244 2750 c-50 -32 -80 -88 -160 -298 -41 -108 -76 -198 -78 -200
-2 -2 -151 -41 -330 -87 l-326 -83 0 169 0 169 -69 0 -70 0 -3 -377 c-3 -329
-6 -384 -21 -424 -36 -94 -118 -139 -255 -139 -110 0 -149 14 -203 70 -36 37
-49 59 -58 99 -7 33 -11 186 -11 411 l0 360 -70 0 -70 0 0 -329 c0 -181 5
-365 11 -408 31 -225 157 -325 409 -324 144 0 217 26 295 104 76 78 93 124
107 307 6 74 12 137 13 139 7 7 525 54 531 48 5 -5 -123 -361 -147 -408 -4 -8
-65 -36 -136 -62 l-128 -47 -18 -49 c-9 -27 -17 -52 -17 -55 0 -4 74 -6 164
-5 l164 3 49 -44 c26 -24 80 -74 120 -111 l71 -68 22 54 22 54 -65 123 -64
123 77 205 c43 112 82 206 88 208 5 1 87 -82 183 -185 95 -103 195 -212 222
-240 l48 -53 10 28 c6 15 20 52 33 82 l23 55 -204 302 c-112 166 -203 307
-203 314 0 7 33 101 74 208 41 108 77 211 81 229 14 69 -20 152 -63 152 -9 0
-31 -9 -48 -20z"/>
<path d="M2545 2634 c-3 -25 -5 -47 -3 -48 2 -2 19 -7 38 -13 32 -10 28 -11
-43 -12 -71 -1 -78 -3 -86 -23 -4 -13 -14 -176 -21 -363 -12 -321 -12 -343 5
-378 19 -40 52 -68 100 -84 l30 -10 3 -129 c3 -122 2 -130 -19 -146 -12 -10
-31 -18 -44 -18 -30 0 -85 -20 -85 -31 0 -24 50 -34 175 -34 125 0 175 10 175
34 0 11 -55 31 -85 31 -13 0 -32 8 -44 18 -21 16 -22 24 -19 146 l3 129 30 10
c48 16 81 44 100 84 17 36 18 57 6 378 -7 187 -14 350 -17 363 -4 20 -10 22
-59 22 -60 0 -60 1 -46 62 8 36 8 37 -23 43 -17 4 -38 9 -47 11 -13 4 -18 -5
-24 -42z m149 -185 c3 -34 6 -93 6 -130 l0 -69 -105 0 -105 0 0 63 c0 34 3 92
7 130 l6 67 92 0 92 0 7 -61z"/>
<path d="M3904 2658 l-41 -10 10 -42 c5 -22 11 -42 13 -44 1 -2 22 -1 46 3
l45 7 -10 49 c-5 27 -12 48 -16 48 -3 -1 -25 -6 -47 -11z"/>
<path d="M3940 2461 c-30 -5 -35 -10 -32 -31 7 -66 10 -69 50 -63 20 3 40 8
44 12 11 10 -3 91 -16 90 -6 -1 -27 -4 -46 -8z"/>
<path d="M4713 2425 c-88 -19 -173 -68 -238 -136 -182 -191 -190 -557 -18
-767 140 -171 434 -215 638 -97 146 84 235 262 235 470 0 229 -97 404 -270
488 -113 55 -225 68 -347 42z m229 -119 c150 -45 236 -175 246 -373 5 -118 -8
-205 -44 -276 -107 -210 -410 -252 -568 -77 -80 89 -113 202 -103 353 14 201
82 308 236 368 56 22 169 25 233 5z"/>
<path d="M410 2360 l0 -60 170 0 170 0 0 -465 0 -465 70 0 70 0 0 465 0 465
175 0 175 0 0 60 0 60 -415 0 -415 0 0 -60z"/>
<path d="M1420 1896 l0 -526 65 0 65 0 2 233 3 232 113 3 c192 5 212 -11 406
-315 l98 -153 84 0 c65 0 83 3 78 13 -27 46 -175 271 -205 312 -36 51 -94 107
-139 136 -24 16 -24 16 47 37 92 28 150 73 186 143 53 103 32 244 -48 324 -73
73 -97 78 -447 83 l-308 4 0 -526z m605 384 c61 -32 89 -76 89 -139 0 -63 -29
-117 -78 -149 -41 -27 -42 -27 -263 -30 l-223 -3 0 169 c0 93 3 172 7 176 4 4
100 6 213 4 198 -3 208 -4 255 -28z"/>
<path d="M2950 1896 l0 -526 70 0 70 0 0 215 0 215 173 0 c256 0 359 29 420
117 63 91 80 187 52 290 -15 55 -27 76 -69 119 -79 81 -105 87 -438 92 l-278
4 0 -526z m543 390 c50 -18 76 -42 98 -91 43 -94 10 -200 -76 -245 -47 -24
-59 -25 -237 -28 l-188 -4 0 191 0 191 183 0 c127 -1 193 -5 220 -14z"/>
<path d="M3960 2263 c-23 -4 -25 -7 -22 -48 4 -44 4 -45 41 -45 53 0 61 9 54
58 -6 44 -8 45 -73 35z"/>
<path d="M3978 2063 c-18 -5 -24 -45 -12 -77 6 -16 48 -21 78 -10 16 6 21 48
10 78 -6 15 -38 19 -76 9z"/>
<path d="M3986 1862 c-3 -5 -2 -34 1 -65 5 -53 7 -57 32 -57 55 0 71 10 71 44
0 18 -6 44 -12 59 -11 22 -20 27 -50 27 -20 0 -39 -4 -42 -8z"/>
<path d="M4043 1643 c-36 -5 -38 -10 -22 -66 10 -38 11 -39 47 -32 50 9 55 16
47 64 -5 30 -11 41 -23 39 -10 0 -32 -3 -49 -5z"/>
<path d="M4095 1448 c-16 -6 -31 -12 -32 -13 -2 -1 4 -23 13 -49 13 -37 20
-46 33 -41 9 4 28 12 44 17 30 11 32 18 15 65 -13 35 -24 38 -73 21z"/>
<path d="M4185 1268 c-22 -11 -41 -22 -43 -23 -5 -4 37 -85 44 -85 8 0 84 40
84 44 0 2 -10 22 -23 44 l-22 40 -40 -20z"/>
<path d="M6606 1272 c-2 -4 -11 -24 -19 -45 l-16 -37 40 -21 c23 -11 43 -18
47 -15 3 3 13 23 22 44 l18 39 -44 21 c-24 12 -45 18 -48 14z"/>
<path d="M4278 1093 l-37 -25 26 -39 c14 -21 30 -39 35 -39 5 0 24 12 43 27
l33 26 -25 39 c-14 21 -28 38 -32 37 -3 0 -23 -12 -43 -26z"/>
<path d="M6491 1071 l-31 -39 36 -27 c41 -32 53 -28 85 21 l19 31 -39 26 -40
26 -30 -38z"/>
<path d="M4406 938 l-37 -33 38 -36 38 -36 32 37 32 37 -32 32 -33 31 -38 -32z"/>
<path d="M6365 920 l-29 -30 35 -35 35 -35 34 36 35 35 -33 30 c-18 16 -36 29
-40 29 -5 0 -21 -14 -37 -30z"/>
<path d="M4546 796 l-26 -35 38 -31 37 -31 28 33 c34 41 34 49 -3 76 -38 29
-43 28 -74 -12z"/>
<path d="M6221 791 l-34 -28 28 -37 c15 -20 30 -36 34 -36 4 0 22 13 41 29
l34 28 -27 37 c-16 20 -31 36 -35 36 -4 0 -22 -13 -41 -29z"/>
<path d="M4713 685 c-13 -19 -23 -38 -23 -43 0 -4 20 -18 43 -29 l44 -21 21
43 21 44 -35 20 c-19 12 -38 21 -42 21 -4 0 -17 -16 -29 -35z"/>
<path d="M6063 689 c-18 -12 -33 -25 -33 -30 0 -9 27 -68 35 -77 6 -7 85 39
85 50 0 14 -40 78 -48 78 -4 0 -22 -10 -39 -21z"/>
<path d="M4892 603 c-5 -16 -13 -35 -17 -44 -5 -13 4 -20 41 -33 26 -9 48 -15
49 -13 5 7 25 72 25 82 0 9 -60 35 -83 35 -3 0 -10 -12 -15 -27z"/>
<path d="M5883 608 c-18 -6 -33 -16 -33 -23 0 -12 20 -76 26 -84 5 -6 94 31
94 40 0 18 -34 79 -44 78 -6 -1 -26 -6 -43 -11z"/>
<path d="M5086 562 c-2 -4 -7 -24 -11 -44 -7 -34 -5 -39 20 -48 38 -14 75 -13
75 4 0 7 3 27 6 44 6 29 4 31 -32 41 -47 13 -51 13 -58 3z"/>
<path d="M5687 553 c-24 -4 -28 -8 -23 -26 3 -12 6 -32 6 -45 0 -30 19 -36 68
-23 l39 11 -10 45 c-11 48 -12 48 -80 38z"/>
<path d="M5274 506 c-3 -13 -4 -35 -2 -47 3 -21 9 -24 51 -27 l47 -3 0 50 0
51 -45 0 c-39 0 -45 -3 -51 -24z"/>
<path d="M5470 480 l0 -50 50 0 50 0 0 50 0 50 -50 0 -50 0 0 -50z"/>
</g>
</svg>
