<?xml version="1.0" standalone="no"?>
<!DOCTYPE svg PUBLIC "-//W3C//DTD SVG 20010904//EN"
 "http://www.w3.org/TR/2001/REC-SVG-20010904/DTD/svg10.dtd">
<svg version="1.0" xmlns="http://www.w3.org/2000/svg"
 width="212.000000pt" height="194.000000pt" viewBox="0 0 212.000000 194.000000"
 preserveAspectRatio="xMidYMid meet">

<g transform="translate(0.000000,194.000000) scale(0.100000,-0.100000)"
fill="#000000" stroke="none">
<path d="M1336 1700 c-37 -34 -56 -69 -131 -240 -68 -156 -93 -201 -109 -205
-25 -6 -669 -135 -673 -135 -6 0 -73 -153 -69 -157 2 -2 145 3 317 11 172 9
315 14 317 11 4 -4 -155 -372 -170 -391 -4 -6 -64 -28 -132 -49 l-125 -38 -17
-41 c-9 -23 -18 -46 -21 -52 -3 -7 46 -13 154 -17 l158 -7 112 -112 c62 -62
114 -110 115 -108 11 16 38 83 38 94 0 7 -24 65 -54 128 l-54 115 84 189 c46
103 88 192 93 197 9 9 48 -34 271 -305 l145 -176 28 61 c15 34 30 71 33 82 4
15 -46 106 -175 323 l-180 301 86 193 c69 155 86 205 91 255 9 117 -49 149
-132 73z"/>
</g>
</svg>
